<?xml version="1.0" encoding="UTF-8"?>
<svg id="Layer_1" xmlns="http://www.w3.org/2000/svg" version="1.1" viewBox="0 0 2578.3 660.9">
  <!-- Generator: Adobe Illustrator 29.0.1, SVG Export Plug-In . SVG Version: 2.1.0 Build 192)  -->
  <defs>
    <style>
      .st0 {
        fill: #fff;
      }
    </style>
  </defs>
  <path class="st0" d="M49.5,369.5c-1,7.6-1.9,18-1.9,36.2,0,108.5,88.6,199.9,191.5,199.9s185.6-85.7,185.6-196.2-81-192.3-194.2-192.3S55.2,288.5,27.6,319l56.1-110.5c33.3-22.9,95.2-46.7,151.4-46.7,136.1,0,248.6,112.3,248.6,249.5s-110.5,249.5-244.7,249.5S25.6,595.2,0,465.7l49.5-96.2Z"/>
  <path class="st0" d="M521.8,411.3c0-141,112.3-243.7,227.6-243.7s108.6,18.2,143.8,43.8l36.2,71.4c-44.8-34.2-106.6-61.8-164.7-61.8-111.5,0-183.8,93.3-183.8,190.5s79,194.2,188.5,194.2,182.9-80,182.9-194.2V0h59.1v411.3c0,149.4-124.8,249.5-241.9,249.5s-247.6-110.5-247.6-249.5Z"/>
  <path class="st0" d="M1060.6,411.3c0-141,112.3-243.7,227.6-243.7s108.5,18.2,143.8,43.8l36.2,71.4c-44.8-34.2-106.6-61.8-164.7-61.8-111.5,0-183.8,93.3-183.8,190.5s79,194.2,188.5,194.2,182.9-80,182.9-194.2V0h59.1v411.3c0,149.4-124.8,249.5-241.9,249.5s-247.6-110.5-247.6-249.5Z"/>
  <path class="st0" d="M1614.7,411.3V0h59.1v411.3c0,114.2,90.5,194.2,182.9,194.2s188.5-91.3,188.5-194.2-72.4-190.5-183.8-190.5-119.9,27.6-164.7,61.8l36.2-71.4c35.2-25.6,85.7-43.8,143.8-43.8,115.2,0,227.6,102.9,227.6,243.7s-110.5,249.5-247.6,249.5-241.9-99.9-241.9-249.5v.2Z"/>
  <path class="st0" d="M2147.9,70.4c0-21.9,19-39.9,40.9-39.9s40.9,18.2,40.9,39.9-19,39.9-40.9,39.9-40.9-18.2-40.9-39.9ZM2159.2,647.5V175.2h59.1v472.3h-59.1Z"/>
  <path class="st0" d="M2286.8,464.7V187.5l59.1-61.8v315.1c0,102.9,55.2,164.7,140,164.7s64.7-8.6,92.3-26.6v53.4c-27.6,20-60,28.6-97.2,28.6-106.6,0-194.2-84.7-194.2-196.2ZM2365,230.4l28.6-55.2h184.8v55.2h-213.4Z"/>
</svg>